<svg width="191" height="60" viewBox="0 0 191 60" fill="none" xmlns="http://www.w3.org/2000/svg">
<path d="M42.1902 42.354L45.9061 43.6945C45.9061 43.6945 50.1294 42.1735 50.4157 41.9618C50.7021 41.7501 49.5949 41.0358 49.5949 41.0358C49.5949 41.0358 48.7923 40.6412 48.2943 40.5666C47.7963 40.4919 46.9191 40.5954 46.3541 40.7065C45.7891 40.8177 42.1902 42.354 42.1902 42.354Z" fill="#F3DFC9"/>
<path d="M48.1773 44.0939C47.9839 44.3391 53.302 45.3127 53.302 45.3127L61.4623 42.4822C60.971 41.7271 60.2699 41.4221 59.6196 41.1875C58.9693 40.9529 57.8804 40.7701 56.9103 40.8401C55.9401 40.91 48.3708 43.8488 48.1773 44.0939Z" fill="#F3DFC9"/>
<path d="M73.1343 44.1728C66.0547 45.2553 56.3481 45.8863 56.077 45.4735C55.8059 45.0608 65.3551 42.4163 67.003 41.9609C68.6509 41.5055 69.2505 41.387 70.2926 41.5728C72.3931 42.3961 72.9186 42.9841 73.1343 44.1728Z" fill="#F3DFC9"/>
<path d="M73.6225 22.1402C74.2369 23.2044 74.6876 24.3097 74.9745 25.4559C75.2615 26.6021 75.4032 27.7519 75.3997 28.9052C75.3962 30.0584 75.246 31.1894 74.9489 32.2979C74.6519 33.4065 74.2245 34.4632 73.6667 35.4679C73.1089 36.4727 72.4113 37.3975 71.5739 38.2425C70.7364 39.0874 69.7855 39.8171 68.7213 40.4316L42.6737 55.4501L27.6251 29.4199C27.0106 28.3556 26.5599 27.2504 26.273 26.1041C25.986 24.9579 25.8422 23.8161 25.8414 22.6786C25.8407 21.5412 25.9909 20.4103 26.2922 19.2859C26.5935 18.1615 27.023 17.0969 27.5808 16.0921C28.1386 15.0874 28.8362 14.1625 29.6737 13.3176C30.5111 12.4726 31.462 11.7429 32.5262 11.1285C34.0882 10.24 35.7401 9.68121 37.482 9.452C39.2238 9.2228 40.9578 9.33946 42.684 9.80199C44.4102 10.2645 45.9702 11.0305 47.3641 12.0999C48.7579 13.1693 49.9091 14.4792 50.8176 16.0296L52.4633 18.9148L55.3311 17.239C56.8931 16.3506 58.545 15.7917 60.2868 15.5625C62.0286 15.3333 63.7626 15.45 65.4888 15.9125C67.215 16.3751 68.775 17.141 70.1689 18.2104C71.5628 19.2798 72.7139 20.5898 73.6225 22.1402Z" fill="#FF5755"/>
<path d="M28.3637 53.3239C16.0982 47.7443 10.7712 43.3029 1.96173 33.0907L3.74676 31.6349L5.71759 30.2461L7.62139 29.0431L10.0308 27.6026C15.6599 24.8038 19.3423 23.669 26.0476 25.4026C26.0819 25.0333 45.6189 33.7217 48.0084 34.3737C50.3978 35.0257 54.3642 33.7148 55.4492 34.1194C57.6097 34.7879 52.3915 41.9305 44.2322 39.3117C36.0729 36.693 33.5733 34.7408 33.1803 36.4797C33.2083 38.6909 35.3414 40.1054 40.6804 42.7549C49.5871 46.0935 53.7981 46.8302 60.206 46.5441C64.1566 46.6328 67.7527 46.1655 76.3754 44.5031C78.6372 44.2422 79.6903 44.3248 81.3372 44.7182C83.0871 45.6507 83.0941 46.2578 82.6772 47.4064C81.0225 48.2421 80.0625 48.6781 78.2863 49.3919C71.3891 51.8879 67.4192 52.9557 60.2008 54.4163C47.6487 56.7749 39.6043 57.3789 28.3637 53.3239Z" fill="#F3DFC9"/>
<path d="M71.9981 3.73851C68.62 4.74224 64.9459 6.38226 61.5257 9.14636C58.4642 11.6224 56.0849 14.6033 53.8769 17.7872C53.7965 17.895 53.7425 17.8294 53.7561 17.6993C54.1041 11.7997 55.8597 4.98176 59.5043 2.039C63.3259 -1.05147 68.2025 0.476145 72.0311 3.47505C72.1611 3.58622 72.1381 3.70166 71.9981 3.73851Z" fill="#57B146"/>
<g clip-path="url(#clip0_2404_23289)">
<mask id="mask0_2404_23289" style="mask-type:luminance" maskUnits="userSpaceOnUse" x="94" y="7" width="27" height="14">
<path d="M94.165 20.4297H120.718V7.55567H94.165V20.4297Z" fill="white"/>
</mask>
<g mask="url(#mask0_2404_23289)">
<path d="M99.9929 12.4228C99.554 12.2361 98.9477 12.1028 98.4584 12.1028C97.9796 12.1028 97.3609 12.3093 97.3609 13.0559C97.3609 14.2448 100.414 13.7439 100.414 16.0432C100.414 17.5463 99.2069 18.1162 97.7998 18.1162C97.0412 18.1162 96.7023 18.0178 96.0134 17.8512L96.0119 16.6131C96.4911 16.8684 97.171 17.0357 97.72 17.0357C98.2492 17.0357 98.9574 16.7703 98.9574 16.1513C98.9574 14.8445 95.9038 15.3846 95.9038 13.1151C95.9038 11.5822 97.1114 11.022 98.3387 11.022C98.9376 11.022 99.4963 11.1006 100.005 11.2676L99.9929 12.4228Z" fill="#151D20"/>
<path d="M107.994 14.136C107.597 14.0023 107.237 13.926 106.762 13.926C106.414 13.926 105.997 14.05 105.997 14.47C105.997 15.2521 108.255 14.7562 108.255 16.5306C108.255 17.6754 107.218 18.1333 106.161 18.1333C105.667 18.1333 105.163 18.0473 104.689 17.9233L104.766 16.8738C105.173 17.0745 105.6 17.1985 106.045 17.1985C106.375 17.1985 106.898 17.0745 106.898 16.5972C106.898 15.6337 104.64 16.2919 104.64 14.5176C104.64 13.4588 105.58 12.9912 106.598 12.9912C107.208 12.9912 107.605 13.0865 108.012 13.1725L107.994 14.136Z" fill="#151D20"/>
<path d="M112.106 14.1647C111.874 14.0597 111.622 13.9834 111.225 13.9834C110.42 13.9834 109.907 14.6129 109.907 15.5384C109.907 16.4446 110.343 17.1411 111.254 17.1411C111.622 17.1411 112.029 17.0075 112.252 16.9122L112.31 17.971C111.932 18.0853 111.544 18.1333 111.012 18.1333C109.374 18.1333 108.55 17.0362 108.55 15.5384C108.55 14.117 109.403 12.9912 110.963 12.9912C111.486 12.9912 111.864 13.0485 112.223 13.1535L112.106 14.1647Z" fill="#151D20"/>
<path d="M115.064 17.1411C116.062 17.1411 116.323 16.2637 116.323 15.4431C116.323 14.6896 115.916 13.9838 115.064 13.9838C114.221 13.9838 113.814 14.7086 113.814 15.4431C113.814 16.254 114.075 17.1411 115.064 17.1411ZM115.064 12.9916C116.546 12.9916 117.68 13.9741 117.68 15.5958C117.68 17.0075 116.721 18.1333 115.064 18.1333C113.417 18.1333 112.457 17.0075 112.457 15.5958C112.457 13.9741 113.591 12.9916 115.064 12.9916Z" fill="#151D20"/>
<path d="M104.787 13.0386H103.469L100.99 19.7881H102.181L104.787 13.0386Z" fill="#151D20"/>
<path d="M99.4003 12.9181C99.9508 13.4756 100.499 14.1547 100.897 14.9512C101.252 15.6645 101.432 16.3591 101.561 17.0591C101.566 17.0835 101.583 17.0816 101.592 17.0626C102.065 16.2355 102.355 15.1097 101.931 14.2613C101.487 13.371 100.42 12.9615 99.4181 12.879C99.3832 12.8774 99.377 12.8956 99.4003 12.9181Z" fill="#151D20"/>
<path d="M117.653 13.0986H117.475V13.0343H117.908V13.0986H117.729V13.6196H117.653V13.0986Z" fill="#151D20"/>
<path d="M118.469 13.3628C118.464 13.2822 118.459 13.1822 118.459 13.1102H118.457C118.436 13.178 118.413 13.2524 118.383 13.3326L118.28 13.6165H118.223L118.127 13.3376C118.099 13.2551 118.077 13.1795 118.061 13.1102H118.059C118.057 13.183 118.053 13.281 118.048 13.369L118.032 13.6196H117.96L118.001 13.0346H118.097L118.197 13.3174C118.221 13.3895 118.24 13.455 118.256 13.5154H118.257C118.273 13.4565 118.294 13.3914 118.32 13.3174L118.424 13.0346H118.521L118.557 13.6196H118.483L118.469 13.3628Z" fill="#151D20"/>
</g>
</g>
<path d="M105.22 52.1592C103.627 52.1592 102.128 51.9297 100.724 51.4707C99.3475 50.9847 98.1055 50.2692 96.9985 49.3242C95.9185 48.3522 95.0005 47.1102 94.2445 45.5982L98.8615 42.7227C99.6445 44.0187 100.603 45.0042 101.737 45.6792C102.871 46.3542 104.14 46.6917 105.544 46.6917C106.759 46.6917 107.677 46.4352 108.298 45.9222C108.919 45.4092 109.229 44.7342 109.229 43.8972C109.229 43.3572 109.081 42.8982 108.784 42.5202C108.514 42.1152 108.014 41.7372 107.285 41.3862C106.556 41.0352 105.503 40.6977 104.126 40.3737C101.885 39.8337 100.103 39.1587 98.7805 38.3487C97.4845 37.5387 96.5665 36.5802 96.0265 35.4732C95.4865 34.3392 95.2165 33.0837 95.2165 31.7067C95.2165 30.0867 95.608 28.6557 96.391 27.4137C97.201 26.1447 98.3485 25.1457 99.8335 24.4167C101.318 23.6877 103.087 23.3232 105.139 23.3232C107.461 23.3232 109.418 23.7822 111.011 24.7002C112.631 25.6182 113.927 26.8197 114.899 28.3047L110.282 31.5042C109.58 30.5862 108.73 29.9247 107.731 29.5197C106.759 29.1147 105.787 28.9122 104.815 28.9122C103.654 28.9122 102.749 29.1417 102.101 29.6007C101.48 30.0327 101.17 30.6537 101.17 31.4637C101.17 32.2197 101.494 32.8542 102.142 33.3672C102.79 33.8532 104.059 34.3122 105.949 34.7442C108.217 35.2842 110.039 35.9457 111.416 36.7287C112.793 37.5117 113.792 38.4702 114.413 39.6042C115.034 40.7382 115.345 42.1017 115.345 43.6947C115.345 45.3147 114.926 46.7592 114.089 48.0282C113.279 49.2972 112.118 50.3097 110.606 51.0657C109.094 51.7947 107.299 52.1592 105.22 52.1592ZM114.791 37.7007C114.791 35.6217 115.128 33.7182 115.803 31.9902C116.505 30.2352 117.491 28.7232 118.76 27.4542C120.029 26.1582 121.527 25.1592 123.255 24.4572C124.983 23.7552 126.9 23.4042 129.006 23.4042C131.058 23.4042 132.948 23.7552 134.676 24.4572C136.431 25.1592 137.943 26.1582 139.212 27.4542C140.481 28.7232 141.453 30.2352 142.128 31.9902C142.83 33.7182 143.181 35.6217 143.181 37.7007C143.181 39.7797 142.83 41.6967 142.128 43.4517C141.453 45.1797 140.481 46.6917 139.212 47.9877C137.943 49.2567 136.431 50.2422 134.676 50.9442C132.948 51.6192 131.058 51.9567 129.006 51.9567C126.9 51.9567 124.983 51.6192 123.255 50.9442C121.527 50.2422 120.029 49.2567 118.76 47.9877C117.491 46.6917 116.505 45.1797 115.803 43.4517C115.128 41.6967 114.791 39.7797 114.791 37.7007ZM120.825 37.7007C120.825 39.4017 121.176 40.8867 121.878 42.1557C122.58 43.4247 123.539 44.4102 124.754 45.1122C125.996 45.8142 127.413 46.1652 129.006 46.1652C130.572 46.1652 131.963 45.8142 133.178 45.1122C134.42 44.4102 135.392 43.4247 136.094 42.1557C136.796 40.8867 137.147 39.3882 137.147 37.6602C137.147 35.9592 136.796 34.4742 136.094 33.2052C135.392 31.9362 134.42 30.9642 133.178 30.2892C131.963 29.5872 130.572 29.2362 129.006 29.2362C127.413 29.2362 125.996 29.5872 124.754 30.2892C123.539 30.9912 122.58 31.9767 121.878 33.2457C121.176 34.4877 120.825 35.9727 120.825 37.7007ZM154.898 51.9567C152.468 51.9567 150.416 51.5112 148.742 50.6202C147.095 49.7292 145.839 48.4062 144.975 46.6512C144.111 44.8692 143.679 42.6552 143.679 40.0092V23.8902H149.592V40.1307C149.592 42.0477 150.038 43.5462 150.929 44.6262C151.847 45.6792 153.17 46.2057 154.898 46.2057C156.626 46.2057 157.935 45.6792 158.826 44.6262C159.717 43.5462 160.163 42.0477 160.163 40.1307V23.8902H166.116V40.0092C166.116 42.6552 165.684 44.8692 164.82 46.6512C163.956 48.4062 162.687 49.7292 161.013 50.6202C159.366 51.5112 157.328 51.9567 154.898 51.9567ZM185.191 51.4707H168.424V23.8902H174.337V47.9877L172.838 45.7602H185.191V51.4707Z" fill="#607D8B"/>
<defs>
<clipPath id="clip0_2404_23289">
<rect width="22.6529" height="8.76623" fill="white" transform="translate(95.9023 11.0229)"/>
</clipPath>
</defs>
</svg>
