<svg width="63" height="42" viewBox="0 0 63 42" fill="none" xmlns="http://www.w3.org/2000/svg">
<path d="M31.2517 29.929L34.0042 30.922C34.0042 30.922 37.1326 29.7953 37.3447 29.6385C37.5568 29.4817 36.7367 28.9525 36.7367 28.9525C36.7367 28.9525 36.1422 28.6603 35.7733 28.605C35.4044 28.5497 34.7546 28.6263 34.3361 28.7087C33.9175 28.791 31.2517 29.929 31.2517 29.929Z" fill="white"/>
<path d="M35.6866 31.2176C35.5434 31.3992 39.4827 32.1204 39.4827 32.1204L45.5273 30.0237C45.1634 29.4644 44.6441 29.2385 44.1624 29.0647C43.6807 28.8909 42.8741 28.7555 42.1555 28.8073C41.4369 28.8592 35.8299 31.036 35.6866 31.2176Z" fill="white"/>
<path d="M54.1735 31.2763C48.9294 32.0782 41.7393 32.5456 41.5385 32.2399C41.3377 31.9341 48.4112 29.9753 49.6319 29.6379C50.8525 29.3006 51.2967 29.2128 52.0686 29.3505C53.6245 29.9603 54.0138 30.3958 54.1735 31.2763Z" fill="white"/>
<path d="M54.8379 14.9558C55.2931 15.7441 55.6269 16.5628 55.8395 17.4119C56.052 18.2609 56.157 19.1126 56.1544 19.9669C56.1519 20.8211 56.0405 21.6589 55.8205 22.48C55.6005 23.3012 55.2839 24.0839 54.8707 24.8282C54.4575 25.5724 53.9408 26.2575 53.3205 26.8834C52.7001 27.5093 51.9958 28.0498 51.2075 28.5049L31.9129 39.6298L20.7658 20.3481C20.3107 19.5598 19.9768 18.7411 19.7643 17.892C19.5517 17.043 19.4451 16.1972 19.4446 15.3546C19.444 14.5121 19.5553 13.6744 19.7785 12.8415C20.0017 12.0086 20.3199 11.22 20.733 10.4757C21.1462 9.73147 21.6629 9.04639 22.2833 8.4205C22.9036 7.79461 23.608 7.2541 24.3963 6.79895C25.5533 6.14085 26.777 5.72691 28.0672 5.55713C29.3574 5.38735 30.6419 5.47377 31.9205 5.81638C33.1992 6.159 34.3548 6.72639 35.3873 7.51854C36.4198 8.31069 37.2725 9.28099 37.9455 10.4294L39.1645 12.5666L41.2888 11.3253C42.4458 10.6672 43.6694 10.2532 44.9597 10.0835C46.2499 9.91367 47.5344 10.0001 48.813 10.3427C50.0917 10.6853 51.2473 11.2527 52.2798 12.0449C53.3122 12.837 54.165 13.8073 54.8379 14.9558Z" fill="#FF5755"/>
<path d="M21.0098 38.0547C11.9243 33.9217 7.97841 30.6318 1.45285 23.0672L2.77509 21.9888L4.23496 20.9601L5.64518 20.069L7.42996 19.0019C11.5997 16.9288 14.3273 16.0881 19.2943 17.3723C19.3196 17.0988 33.7915 23.5346 35.5615 24.0176C37.3314 24.5006 40.2695 23.5295 41.0732 23.8292C42.6736 24.3244 38.8082 29.6152 32.7643 27.6754C26.7204 25.7356 24.8688 24.2895 24.5777 25.5775C24.5985 27.2155 26.1786 28.2633 30.1333 30.2259C36.7309 32.6989 39.8501 33.2446 44.5967 33.0327C47.5231 33.0984 50.1869 32.7522 56.5741 31.5208C58.2495 31.3276 59.0296 31.3888 60.2495 31.6802C61.5457 32.3709 61.5509 32.8206 61.2421 33.6714C60.0163 34.2904 59.3053 34.6134 57.9896 35.1422C52.8806 36.9911 49.9399 37.782 44.5929 38.8639C35.295 40.6111 29.3362 41.0585 21.0098 38.0547Z" fill="white"/>
<path d="M53.1044 2.77397C50.6021 3.27534 47.8805 4.09453 45.3471 5.47522C43.0793 6.71199 41.3168 8.20101 39.6813 9.79137C39.6217 9.84522 39.5817 9.81242 39.5918 9.74747C39.8496 6.80058 41.15 3.39498 43.8497 1.92505C46.6806 0.381348 50.2929 1.1444 53.1289 2.64237C53.2251 2.6979 53.2081 2.75556 53.1044 2.77397Z" fill="white"/>
</svg>
