<svg width="147" height="40" viewBox="0 0 147 40" fill="none" xmlns="http://www.w3.org/2000/svg">
<path d="M31.9793 28.929L34.7319 29.922C34.7319 29.922 37.8602 28.7953 38.0723 28.6385C38.2844 28.4817 37.4643 27.9525 37.4643 27.9525C37.4643 27.9525 36.8698 27.6603 36.5009 27.605C36.1321 27.5497 35.4823 27.6263 35.0637 27.7087C34.6452 27.791 31.9793 28.929 31.9793 28.929Z" fill="white"/>
<path d="M36.4142 30.2181C36.2709 30.3997 40.2102 31.1209 40.2102 31.1209L46.2549 29.0242C45.891 28.4649 45.3716 28.239 44.8899 28.0652C44.4082 27.8914 43.6016 27.756 42.883 27.8078C42.1644 27.8597 36.5575 30.0365 36.4142 30.2181Z" fill="white"/>
<path d="M54.901 30.2763C49.6569 31.0782 42.4667 31.5456 42.2659 31.2399C42.0652 30.9341 49.1386 28.9753 50.3593 28.6379C51.5799 28.3006 52.0241 28.2128 52.796 28.3505C54.3519 28.9603 54.7412 29.3958 54.901 30.2763Z" fill="white"/>
<path d="M55.5655 13.9563C56.0206 14.7446 56.3545 15.5633 56.567 16.4123C56.7796 17.2614 56.8846 18.1131 56.882 18.9674C56.8794 19.8216 56.7681 20.6594 56.5481 21.4805C56.328 22.3017 56.0114 23.0844 55.5983 23.8287C55.1851 24.5729 54.6683 25.258 54.048 25.8839C53.4277 26.5098 52.7233 27.0503 51.935 27.5054L32.6405 38.6303L21.4933 19.3486C21.0382 18.5603 20.7043 17.7416 20.4918 16.8925C20.2792 16.0435 20.1727 15.1977 20.1721 14.3551C20.1716 13.5126 20.2829 12.6748 20.5061 11.842C20.7292 11.0091 21.0474 10.2205 21.4606 9.47622C21.8737 8.73195 22.3905 8.04688 23.0108 7.42099C23.6312 6.7951 24.3355 6.25459 25.1238 5.79944C26.2809 5.14134 27.5045 4.7274 28.7947 4.55762C30.085 4.38784 31.3694 4.47425 32.6481 4.81687C33.9268 5.15949 35.0823 5.72687 36.1148 6.51902C37.1473 7.31118 38 8.28148 38.673 9.42993L39.892 11.5671L42.0163 10.3258C43.1733 9.66767 44.397 9.25372 45.6872 9.08394C46.9774 8.91416 48.2619 9.00058 49.5406 9.3432C50.8192 9.68581 51.9748 10.2532 53.0073 11.0454C54.0398 11.8375 54.8925 12.8078 55.5655 13.9563Z" fill="#FF5755"/>
<path d="M21.7375 37.0552C12.652 32.9222 8.70607 29.6323 2.18051 22.0677L3.50275 20.9893L4.96262 19.9606L6.37285 19.0695L8.15762 18.0024C12.3273 15.9293 15.055 15.0886 20.0219 16.3728C20.0473 16.0993 34.5191 22.5351 36.2891 23.0181C38.0591 23.5011 40.9971 22.53 41.8009 22.8297C43.4013 23.3249 39.5359 28.6157 33.492 26.6759C27.448 24.7361 25.5965 23.29 25.3054 24.578C25.3261 26.216 26.9062 27.2638 30.861 29.2263C37.4586 31.6994 40.5778 32.2451 45.3244 32.0331C48.2508 32.0989 50.9146 31.7527 57.3017 30.5213C58.9772 30.3281 59.7572 30.3893 60.9771 30.6807C62.2734 31.3714 62.2785 31.8211 61.9697 32.6719C60.744 33.2909 60.0329 33.6139 58.7172 34.1427C53.6082 35.9916 50.6675 36.7825 45.3205 37.8644C36.0227 39.6116 30.0639 40.0589 21.7375 37.0552Z" fill="white"/>
<path d="M53.7261 1.77397C51.2238 2.27534 48.5022 3.09453 45.9688 4.47522C43.701 5.71199 41.9385 7.20101 40.303 8.79137C40.2434 8.84522 40.2034 8.81242 40.2135 8.74747C40.4713 5.80058 41.7717 2.39498 44.4714 0.925051C47.3023 -0.618652 50.9146 0.144398 53.7506 1.64237C53.8468 1.6979 53.8298 1.75556 53.7261 1.77397Z" fill="white"/>
<g clip-path="url(#clip0_2809_4206)">
<mask id="mask0_2809_4206" style="mask-type:luminance" maskUnits="userSpaceOnUse" x="70" y="-1" width="21" height="10">
<path d="M70.5249 8.83887H90.1936V-0.697444H70.5249V8.83887Z" fill="white"/>
</mask>
<g mask="url(#mask0_2809_4206)">
<path d="M74.8418 2.90866C74.5167 2.77034 74.0676 2.67162 73.7051 2.67162C73.3505 2.67162 72.8922 2.82458 72.8922 3.37757C72.8922 4.25828 75.1541 3.88723 75.1541 5.5904C75.1541 6.70384 74.2596 7.12598 73.2173 7.12598C72.6554 7.12598 72.4043 7.05309 71.8941 6.92969L71.8929 6.01253C72.2479 6.20165 72.7515 6.32562 73.1582 6.32562C73.5502 6.32562 74.0748 6.12904 74.0748 5.67046C74.0748 4.70251 71.8129 5.10255 71.8129 3.42148C71.8129 2.28594 72.7074 1.87098 73.6165 1.87098C74.0601 1.87098 74.4739 1.92923 74.851 2.05292L74.8418 2.90866Z" fill="white"/>
<path d="M80.7688 4.17674C80.4747 4.07773 80.2081 4.0212 79.8563 4.0212C79.598 4.0212 79.2892 4.11303 79.2892 4.4241C79.2892 5.0035 80.9617 4.63618 80.9617 5.9505C80.9617 6.7985 80.1938 7.1377 79.4112 7.1377C79.0453 7.1377 78.672 7.07399 78.3204 6.98216L78.3778 6.20475C78.6791 6.35341 78.9951 6.44524 79.3251 6.44524C79.5693 6.44524 79.9567 6.35341 79.9567 5.99986C79.9567 5.28616 78.2845 5.77373 78.2845 4.4594C78.2845 3.67511 78.9804 3.32874 79.7343 3.32874C80.1866 3.32874 80.4807 3.39933 80.7823 3.46304L80.7688 4.17674Z" fill="white"/>
<path d="M83.8146 4.19895C83.6425 4.12118 83.4559 4.06465 83.1618 4.06465C82.5657 4.06465 82.1855 4.53097 82.1855 5.21654C82.1855 5.88777 82.5084 6.40374 83.183 6.40374C83.4559 6.40374 83.7572 6.30474 83.9223 6.23414L83.9653 7.01843C83.6855 7.10309 83.3982 7.13867 83.0037 7.13867C81.7906 7.13867 81.1805 6.32597 81.1805 5.21654C81.1805 4.16365 81.8122 3.32972 82.9678 3.32972C83.3552 3.32972 83.6353 3.37219 83.901 3.44996L83.8146 4.19895Z" fill="white"/>
<path d="M86.0056 6.40374C86.7448 6.40374 86.9385 5.75375 86.9385 5.14595C86.9385 4.58779 86.6372 4.06493 86.0056 4.06493C85.3811 4.06493 85.0798 4.60185 85.0798 5.14595C85.0798 5.74658 85.2735 6.40374 86.0056 6.40374ZM86.0056 3.33C87.1035 3.33 87.9432 4.05776 87.9432 5.25902C87.9432 6.30474 87.2329 7.13867 86.0056 7.13867C84.7857 7.13867 84.0748 6.30474 84.0748 5.25902C84.0748 4.05776 84.9148 3.33 86.0056 3.33Z" fill="white"/>
<path d="M78.3932 3.36466H77.4169L75.5806 8.36426H76.4627L78.3932 3.36466Z" fill="white"/>
<path d="M74.4029 3.2747C74.8107 3.68765 75.2171 4.1907 75.5115 4.78072C75.7749 5.30903 75.9081 5.82357 76.0034 6.34212C76.0074 6.3602 76.0194 6.35877 76.0263 6.3447C76.377 5.73202 76.5917 4.89809 76.2777 4.26962C75.9488 3.61016 75.1585 3.30684 74.4161 3.24571C74.3903 3.24456 74.3857 3.25805 74.4029 3.2747Z" fill="white"/>
<path d="M87.9233 3.40895H87.7916V3.36131H88.1125V3.40895H87.9799V3.79492H87.9233V3.40895Z" fill="white"/>
<path d="M88.5275 3.60466C88.5244 3.54497 88.5207 3.47093 88.5207 3.41756H88.5192C88.5037 3.46778 88.4865 3.52287 88.4644 3.58228L88.3878 3.79263H88.3456L88.2747 3.58601C88.2541 3.52488 88.2374 3.46892 88.2254 3.41756H88.2239C88.2228 3.47151 88.2193 3.54411 88.2156 3.60925L88.2041 3.79492H88.1508L88.1809 3.3616H88.2523L88.3261 3.57109C88.3442 3.62446 88.3585 3.67296 88.37 3.71773H88.3712C88.3829 3.67411 88.3981 3.6259 88.4176 3.57109L88.4948 3.3616H88.5663L88.5933 3.79492H88.5379L88.5275 3.60466Z" fill="white"/>
</g>
</g>
<path d="M79.697 36.0979C78.3859 36.0979 77.1525 35.909 75.997 35.5312C74.8636 35.1312 73.8414 34.5424 72.9303 33.7646C72.0414 32.9646 71.2859 31.9424 70.6636 30.6979L74.4636 28.3313C75.1081 29.3979 75.897 30.209 76.8303 30.7646C77.7636 31.3201 78.8081 31.5979 79.9636 31.5979C80.9636 31.5979 81.7192 31.3868 82.2303 30.9646C82.7414 30.5424 82.997 29.9868 82.997 29.2979C82.997 28.8535 82.8748 28.4757 82.6303 28.1646C82.4081 27.8312 81.997 27.5201 81.397 27.2312C80.797 26.9424 79.9303 26.6646 78.797 26.3979C76.9525 25.9535 75.4859 25.3979 74.397 24.7313C73.3303 24.0646 72.5748 23.2757 72.1303 22.3646C71.6859 21.4313 71.4636 20.3979 71.4636 19.2646C71.4636 17.9312 71.7859 16.7535 72.4303 15.7312C73.097 14.6868 74.0414 13.8646 75.2636 13.2646C76.4859 12.6646 77.9414 12.3646 79.6303 12.3646C81.5414 12.3646 83.1525 12.7424 84.4636 13.4979C85.797 14.2535 86.8636 15.2424 87.6636 16.4646L83.8636 19.0979C83.2859 18.3424 82.5859 17.7979 81.7636 17.4646C80.9636 17.1312 80.1636 16.9646 79.3636 16.9646C78.4081 16.9646 77.6636 17.1535 77.1303 17.5312C76.6192 17.8868 76.3636 18.3979 76.3636 19.0646C76.3636 19.6868 76.6303 20.209 77.1636 20.6312C77.697 21.0312 78.7414 21.409 80.297 21.7646C82.1636 22.209 83.6636 22.7535 84.797 23.3979C85.9303 24.0424 86.7525 24.8313 87.2636 25.7646C87.7748 26.6979 88.0303 27.8201 88.0303 29.1313C88.0303 30.4646 87.6859 31.6535 86.997 32.6979C86.3303 33.7424 85.3748 34.5757 84.1303 35.1979C82.8859 35.7979 81.4081 36.0979 79.697 36.0979ZM87.5741 24.1979C87.5741 22.4868 87.8518 20.9201 88.4074 19.4979C88.9852 18.0535 89.7963 16.809 90.8407 15.7646C91.8852 14.6979 93.1185 13.8757 94.5407 13.2979C95.963 12.7201 97.5407 12.4313 99.2741 12.4313C100.963 12.4313 102.519 12.7201 103.941 13.2979C105.385 13.8757 106.63 14.6979 107.674 15.7646C108.719 16.809 109.519 18.0535 110.074 19.4979C110.652 20.9201 110.941 22.4868 110.941 24.1979C110.941 25.909 110.652 27.4868 110.074 28.9312C109.519 30.3535 108.719 31.5979 107.674 32.6646C106.63 33.709 105.385 34.5201 103.941 35.0979C102.519 35.6535 100.963 35.9312 99.2741 35.9312C97.5407 35.9312 95.963 35.6535 94.5407 35.0979C93.1185 34.5201 91.8852 33.709 90.8407 32.6646C89.7963 31.5979 88.9852 30.3535 88.4074 28.9312C87.8518 27.4868 87.5741 25.909 87.5741 24.1979ZM92.5407 24.1979C92.5407 25.5979 92.8296 26.8201 93.4074 27.8646C93.9852 28.909 94.7741 29.7201 95.7741 30.2979C96.7963 30.8757 97.963 31.1646 99.2741 31.1646C100.563 31.1646 101.707 30.8757 102.707 30.2979C103.73 29.7201 104.53 28.909 105.107 27.8646C105.685 26.8201 105.974 25.5868 105.974 24.1646C105.974 22.7646 105.685 21.5424 105.107 20.4979C104.53 19.4535 103.73 18.6535 102.707 18.0979C101.707 17.5201 100.563 17.2312 99.2741 17.2312C97.963 17.2312 96.7963 17.5201 95.7741 18.0979C94.7741 18.6757 93.9852 19.4868 93.4074 20.5312C92.8296 21.5535 92.5407 22.7757 92.5407 24.1979ZM120.584 35.9312C118.584 35.9312 116.895 35.5646 115.518 34.8312C114.162 34.0979 113.129 33.009 112.418 31.5646C111.706 30.0979 111.351 28.2757 111.351 26.0979V12.8312H116.218V26.1979C116.218 27.7757 116.584 29.009 117.318 29.8979C118.073 30.7646 119.162 31.1979 120.584 31.1979C122.006 31.1979 123.084 30.7646 123.818 29.8979C124.551 29.009 124.918 27.7757 124.918 26.1979V12.8312H129.818V26.0979C129.818 28.2757 129.462 30.0979 128.751 31.5646C128.04 33.009 126.995 34.0979 125.618 34.8312C124.262 35.5646 122.584 35.9312 120.584 35.9312ZM145.517 35.5312H131.717V12.8312H136.583V32.6646L135.35 30.8313H145.517V35.5312Z" fill="white"/>
<defs>
<clipPath id="clip0_2809_4206">
<rect width="16.7799" height="6.49351" fill="white" transform="translate(71.8116 1.87109)"/>
</clipPath>
</defs>
</svg>
