<svg width="211" height="56" viewBox="0 0 211 56" fill="none" xmlns="http://www.w3.org/2000/svg">
<path d="M38.0932 36.2692L41.3962 37.4608C41.3962 37.4608 45.1502 36.1087 45.4048 35.9206C45.6593 35.7324 44.6752 35.0974 44.6752 35.0974C44.6752 35.0974 43.9618 34.7468 43.5191 34.6804C43.0764 34.614 42.2967 34.706 41.7944 34.8048C41.2922 34.9036 38.0932 36.2692 38.0932 36.2692Z" fill="#F3DFC9"/>
<path d="M43.415 37.8158C43.2431 38.0337 47.9703 38.8992 47.9703 38.8992L55.2239 36.3832C54.7872 35.712 54.1639 35.4409 53.5859 35.2323C53.0079 35.0238 52.04 34.8613 51.1776 34.9235C50.3153 34.9857 43.587 37.5979 43.415 37.8158Z" fill="#F3DFC9"/>
<path d="M65.5992 37.8863C59.3063 38.8486 50.6781 39.4094 50.4372 39.0426C50.1962 38.6757 58.6844 36.3251 60.1492 35.9203C61.614 35.5155 62.1469 35.4101 63.0733 35.5753C64.9403 36.3071 65.4075 36.8297 65.5992 37.8863Z" fill="#F3DFC9"/>
<path d="M66.3966 18.3016C66.9427 19.2476 67.3434 20.2301 67.5984 21.2489C67.8535 22.2678 67.9795 23.2898 67.9764 24.315C67.9733 25.3401 67.8397 26.3454 67.5757 27.3307C67.3116 28.3161 66.9317 29.2554 66.4359 30.1485C65.9401 31.0416 65.32 31.8637 64.5756 32.6148C63.8312 33.3659 62.986 34.0145 62.04 34.5606L38.8866 47.9104L25.51 24.7725C24.9638 23.8265 24.5632 22.844 24.3081 21.8252C24.0531 20.8063 23.9252 19.7913 23.9245 18.7803C23.9239 17.7692 24.0574 16.7639 24.3253 15.7645C24.5931 14.765 24.9749 13.8187 25.4707 12.9256C25.9665 12.0325 26.5866 11.2104 27.331 10.4593C28.0754 9.70825 28.9206 9.05963 29.8666 8.51346C31.255 7.72373 32.7234 7.227 34.2717 7.02327C35.82 6.81953 37.3613 6.92323 38.8957 7.33437C40.4301 7.74551 41.8168 8.42637 43.0558 9.37696C44.2947 10.3275 45.318 11.4919 46.1256 12.87L47.5884 15.4346L50.1376 13.945C51.526 13.1553 52.9944 12.6586 54.5427 12.4549C56.0909 12.2511 57.6323 12.3548 59.1667 12.766C60.7011 13.1771 62.0878 13.858 63.3267 14.8085C64.5657 15.7591 65.589 16.9235 66.3966 18.3016Z" fill="#FF5755"/>
<path d="M25.803 46.0205C14.9004 41.0608 10.1653 37.1129 2.33465 28.0354L3.92135 26.7414L5.67319 25.5069L7.36545 24.4376L9.50719 23.1571C14.5108 20.6693 17.784 19.6605 23.7443 21.2015C23.7748 20.8733 41.141 28.5963 43.265 29.1759C45.389 29.7555 48.9146 28.5902 49.8791 28.9498C51.7995 29.5441 47.1611 35.893 39.9084 33.5652C32.6557 31.2375 30.4338 29.5022 30.0845 31.0478C30.1094 33.0134 32.0055 34.2707 36.7512 36.6258C44.6683 39.5935 48.4114 40.2483 54.1073 39.994C57.619 40.0729 60.8156 39.6575 68.4801 38.1798C70.4906 37.9479 71.4267 38.0213 72.8906 38.371C74.4461 39.1999 74.4523 39.7395 74.0817 40.7605C72.6109 41.5033 71.7576 41.8909 70.1787 42.5254C64.0479 44.7441 60.5191 45.6932 54.1027 46.9915C42.9453 49.0881 35.7947 49.6249 25.803 46.0205Z" fill="#F3DFC9"/>
<path d="M63.9986 3.68367C60.9958 4.28531 57.7299 5.26835 54.6898 6.92517C51.9685 8.4093 49.8535 10.1961 47.8908 12.1046C47.8193 12.1692 47.7713 12.1298 47.7835 12.0519C48.0928 8.5156 49.6533 4.42888 52.893 2.66497C56.29 0.812524 60.6247 1.72819 64.0279 3.52575C64.1434 3.59239 64.123 3.66158 63.9986 3.68367Z" fill="#57B146"/>
<g clip-path="url(#clip0_3396_4086)">
<mask id="mask0_3396_4086" style="mask-type:luminance" maskUnits="userSpaceOnUse" x="84" y="-4" width="24" height="13">
<path d="M84.2933 8.36206H107.896V-3.08151H84.2933V8.36206Z" fill="white"/>
</mask>
<g mask="url(#mask0_3396_4086)">
<path d="M89.4738 1.24525C89.0836 1.07927 88.5447 0.960807 88.1097 0.960807C87.6841 0.960807 87.1341 1.14435 87.1341 1.80794C87.1341 2.8648 89.8484 2.41953 89.8484 4.46334C89.8484 5.79947 88.775 6.30603 87.5243 6.30603C86.85 6.30603 86.5487 6.21856 85.9364 6.07049L85.9351 4.9699C86.361 5.19683 86.9654 5.3456 87.4534 5.3456C87.9238 5.3456 88.5533 5.10971 88.5533 4.55941C88.5533 3.39787 85.839 3.87792 85.839 1.86063C85.839 0.497982 86.9124 3.08376e-05 88.0033 3.08376e-05C88.5357 3.08376e-05 89.0323 0.0699371 89.4848 0.218358L89.4738 1.24525Z" fill="#151D20"/>
<path d="M96.5861 2.76777C96.2332 2.64897 95.9133 2.58113 95.4911 2.58113C95.1811 2.58113 94.8106 2.69132 94.8106 3.06461C94.8106 3.75989 96.8176 3.3191 96.8176 4.89629C96.8176 5.91388 95.896 6.32092 94.957 6.32092C94.5179 6.32092 94.0699 6.24447 93.648 6.13428L93.7169 5.20139C94.0785 5.37978 94.4576 5.48997 94.8536 5.48997C95.1467 5.48997 95.6116 5.37978 95.6116 4.95552C95.6116 4.09908 93.605 4.68416 93.605 3.10697C93.605 2.16582 94.4401 1.75017 95.3447 1.75017C95.8874 1.75017 96.2404 1.83489 96.6023 1.91134L96.5861 2.76777Z" fill="#151D20"/>
<path d="M100.241 2.79338C100.035 2.70005 99.8107 2.63221 99.4577 2.63221C98.7424 2.63221 98.2862 3.19181 98.2862 4.01449C98.2862 4.81996 98.6736 5.43913 99.4832 5.43913C99.8107 5.43913 100.172 5.32032 100.37 5.23561L100.422 6.17676C100.086 6.27834 99.7414 6.32104 99.2679 6.32104C97.8123 6.32104 97.0802 5.3458 97.0802 4.01449C97.0802 2.75102 97.8381 1.7503 99.2249 1.7503C99.6898 1.7503 100.026 1.80126 100.345 1.89459L100.241 2.79338Z" fill="#151D20"/>
<path d="M102.87 5.43925C103.757 5.43925 103.99 4.65926 103.99 3.9299C103.99 3.26011 103.628 2.63268 102.87 2.63268C102.121 2.63268 101.759 3.27699 101.759 3.9299C101.759 4.65066 101.992 5.43925 102.87 5.43925ZM102.87 1.75076C104.188 1.75076 105.195 2.62407 105.195 4.06558C105.195 5.32044 104.343 6.32117 102.87 6.32117C101.406 6.32117 100.553 5.32044 100.553 4.06558C100.553 2.62407 101.561 1.75076 102.87 1.75076Z" fill="#151D20"/>
<path d="M93.7352 1.79272H92.5637L90.3601 7.79224H91.4187L93.7352 1.79272Z" fill="#151D20"/>
<path d="M88.947 1.68503C89.4363 2.18057 89.9239 2.78424 90.2772 3.49225C90.5934 4.12623 90.7532 4.74367 90.8675 5.36594C90.8723 5.38764 90.8868 5.38591 90.895 5.36904C91.3159 4.63382 91.5734 3.6331 91.1967 2.87894C90.8021 2.08759 89.8537 1.7236 88.9628 1.65025C88.9318 1.64887 88.9263 1.66506 88.947 1.68503Z" fill="#151D20"/>
<path d="M105.171 1.84567H105.013V1.7885H105.398V1.84567H105.239V2.30884H105.171V1.84567Z" fill="#151D20"/>
<path d="M105.897 2.0804C105.893 2.00877 105.888 1.91993 105.888 1.85588H105.887C105.868 1.91614 105.847 1.98226 105.821 2.05354L105.729 2.30596H105.678L105.593 2.05802C105.568 1.98467 105.548 1.91752 105.534 1.85588H105.532C105.531 1.92062 105.527 2.00774 105.522 2.08591L105.509 2.30872H105.444L105.481 1.78873H105.566L105.655 2.04011C105.677 2.10416 105.694 2.16236 105.708 2.21608H105.709C105.723 2.16374 105.741 2.10589 105.765 2.04011L105.857 1.78873H105.943L105.975 2.30872H105.909L105.897 2.0804Z" fill="#151D20"/>
</g>
</g>
<path d="M95.2999 40.4722C93.7265 40.4722 92.2465 40.2456 90.8599 39.7922C89.4999 39.3122 88.2732 38.6056 87.1799 37.6722C86.1132 36.7122 85.2065 35.4856 84.4599 33.9922L89.0199 31.1522C89.7932 32.4322 90.7399 33.4056 91.8599 34.0722C92.9799 34.7389 94.2332 35.0722 95.6199 35.0722C96.8199 35.0722 97.7265 34.8189 98.3399 34.3122C98.9532 33.8056 99.2599 33.1389 99.2599 32.3122C99.2599 31.7789 99.1132 31.3256 98.8199 30.9522C98.5532 30.5522 98.0599 30.1789 97.3399 29.8322C96.6199 29.4856 95.5799 29.1522 94.2199 28.8322C92.0065 28.2989 90.2465 27.6322 88.9399 26.8322C87.6599 26.0322 86.7532 25.0856 86.2199 23.9922C85.6865 22.8722 85.4199 21.6322 85.4199 20.2722C85.4199 18.6722 85.8065 17.2589 86.5799 16.0322C87.3799 14.7789 88.5132 13.7922 89.9799 13.0722C91.4465 12.3522 93.1932 11.9922 95.2199 11.9922C97.5132 11.9922 99.4465 12.4456 101.02 13.3522C102.62 14.2589 103.9 15.4456 104.86 16.9122L100.3 20.0722C99.6065 19.1656 98.7665 18.5122 97.7799 18.1122C96.8199 17.7122 95.8599 17.5122 94.8999 17.5122C93.7532 17.5122 92.8599 17.7389 92.2199 18.1922C91.6065 18.6189 91.2999 19.2322 91.2999 20.0322C91.2999 20.7789 91.6199 21.4056 92.2599 21.9122C92.8999 22.3922 94.1532 22.8456 96.0199 23.2722C98.2599 23.8056 100.06 24.4589 101.42 25.2322C102.78 26.0056 103.767 26.9522 104.38 28.0722C104.993 29.1922 105.3 30.5389 105.3 32.1122C105.3 33.7122 104.887 35.1389 104.06 36.3922C103.26 37.6456 102.113 38.6456 100.62 39.3922C99.1265 40.1122 97.3532 40.4722 95.2999 40.4722ZM104.752 26.1922C104.752 24.1389 105.086 22.2589 105.752 20.5522C106.446 18.8189 107.419 17.3256 108.672 16.0722C109.926 14.7922 111.406 13.8056 113.112 13.1122C114.819 12.4189 116.712 12.0722 118.792 12.0722C120.819 12.0722 122.686 12.4189 124.392 13.1122C126.126 13.8056 127.619 14.7922 128.872 16.0722C130.126 17.3256 131.086 18.8189 131.752 20.5522C132.446 22.2589 132.792 24.1389 132.792 26.1922C132.792 28.2456 132.446 30.1389 131.752 31.8722C131.086 33.5789 130.126 35.0722 128.872 36.3522C127.619 37.6056 126.126 38.5789 124.392 39.2722C122.686 39.9389 120.819 40.2722 118.792 40.2722C116.712 40.2722 114.819 39.9389 113.112 39.2722C111.406 38.5789 109.926 37.6056 108.672 36.3522C107.419 35.0722 106.446 33.5789 105.752 31.8722C105.086 30.1389 104.752 28.2456 104.752 26.1922ZM110.712 26.1922C110.712 27.8722 111.059 29.3389 111.752 30.5922C112.446 31.8456 113.392 32.8189 114.592 33.5122C115.819 34.2056 117.219 34.5522 118.792 34.5522C120.339 34.5522 121.712 34.2056 122.912 33.5122C124.139 32.8189 125.099 31.8456 125.792 30.5922C126.486 29.3389 126.832 27.8589 126.832 26.1522C126.832 24.4722 126.486 23.0056 125.792 21.7522C125.099 20.4989 124.139 19.5389 122.912 18.8722C121.712 18.1789 120.339 17.8322 118.792 17.8322C117.219 17.8322 115.819 18.1789 114.592 18.8722C113.392 19.5656 112.446 20.5389 111.752 21.7922C111.059 23.0189 110.712 24.4856 110.712 26.1922ZM144.365 40.2722C141.965 40.2722 139.938 39.8322 138.285 38.9522C136.658 38.0722 135.418 36.7656 134.565 35.0322C133.711 33.2722 133.285 31.0856 133.285 28.4722V12.5522H139.125V28.5922C139.125 30.4856 139.565 31.9656 140.445 33.0322C141.351 34.0722 142.658 34.5922 144.365 34.5922C146.071 34.5922 147.365 34.0722 148.245 33.0322C149.125 31.9656 149.565 30.4856 149.565 28.5922V12.5522H155.445V28.4722C155.445 31.0856 155.018 33.2722 154.165 35.0322C153.311 36.7656 152.058 38.0722 150.405 38.9522C148.778 39.8322 146.765 40.2722 144.365 40.2722ZM174.283 39.7922H157.723V12.5522H163.563V36.3522L162.083 34.1522H174.283V39.7922Z" fill="#546E7A"/>
<path d="M84.3999 52.7682V44.8122C85.0479 44.7162 85.8039 44.6442 86.6319 44.6442C88.1319 44.6442 89.1999 44.9922 89.9079 45.6522C90.6399 46.3122 91.0599 47.2482 91.0599 48.5562C91.0599 49.8762 90.6399 50.9562 89.8959 51.7002C89.1279 52.4562 87.8799 52.8642 86.3079 52.8642C85.5519 52.8642 84.9399 52.8402 84.3999 52.7682ZM85.4559 45.5802V51.9762C85.7199 52.0242 86.1039 52.0242 86.5119 52.0242C88.7439 52.0362 89.9559 50.7762 89.9559 48.5922C89.9679 46.6842 88.8879 45.4722 86.6799 45.4722C86.1399 45.4722 85.7319 45.5202 85.4559 45.5802ZM94.3109 52.9242H94.2989C92.7389 52.9242 91.5149 51.7722 91.5149 49.9362C91.5149 47.9922 92.7989 46.8522 94.3949 46.8522C96.0629 46.8522 97.1909 48.0642 97.1909 49.8282C97.1909 51.9882 95.6909 52.9242 94.3109 52.9242ZM94.3349 52.1322H94.3469C95.3549 52.1322 96.1109 51.1842 96.1109 49.8642C96.1109 48.8802 95.6189 47.6442 94.3709 47.6442C93.1349 47.6442 92.5949 48.7962 92.5949 49.9002C92.5949 51.1722 93.3149 52.1322 94.3349 52.1322ZM98.0409 52.7922V48.5562C98.0409 47.9442 98.0289 47.4642 97.9929 46.9842H98.9289L98.9889 47.9322H99.0129C99.3009 47.3922 99.9729 46.8522 100.933 46.8522C101.737 46.8522 102.985 47.3322 102.985 49.3242V52.7922H101.929V49.4442C101.929 48.5082 101.581 47.7162 100.585 47.7162C99.9009 47.7162 99.3609 48.2082 99.1689 48.7962C99.1209 48.9282 99.0969 49.1202 99.0969 49.2882V52.7922H98.0409ZM108.309 49.2282V51.4002C108.309 51.9042 108.333 52.3962 108.393 52.7922H107.445L107.349 52.0602H107.313C107.001 52.5162 106.365 52.9242 105.537 52.9242C104.361 52.9242 103.761 52.0962 103.761 51.2562C103.761 49.8522 105.009 49.0842 107.253 49.0962V48.9762C107.253 48.4962 107.121 47.6202 105.933 47.6322C105.381 47.6322 104.817 47.7882 104.409 48.0642L104.169 47.3562C104.649 47.0562 105.357 46.8522 106.089 46.8522C107.877 46.8522 108.309 48.0642 108.309 49.2282ZM107.277 50.8362V49.8282C106.125 49.8042 104.817 50.0082 104.817 51.1362C104.817 51.8322 105.273 52.1442 105.801 52.1442C106.569 52.1442 107.061 51.6642 107.229 51.1722C107.265 51.0642 107.277 50.9442 107.277 50.8362ZM109.719 45.9162L110.751 45.5922V46.9842H112.263V47.7882H110.751V50.9082C110.751 51.6282 110.955 52.0362 111.543 52.0362C111.831 52.0362 111.999 52.0122 112.155 51.9642L112.203 52.7682C111.999 52.8402 111.675 52.9122 111.267 52.9122C110.775 52.9122 110.379 52.7442 110.127 52.4682C109.839 52.1442 109.719 51.6282 109.719 50.9442V47.7882H108.819V46.9842H109.719V45.9162ZM117.57 50.0802H113.502C113.526 51.4962 114.426 52.0842 115.482 52.0842C116.238 52.0842 116.706 51.9522 117.09 51.7842L117.282 52.5402C116.91 52.7082 116.262 52.9122 115.338 52.9122C113.562 52.9122 112.482 51.7242 112.482 49.9842C112.482 48.2322 113.526 46.8522 115.218 46.8522C117.114 46.8522 117.606 48.5202 117.606 49.5882C117.606 49.8042 117.594 49.9602 117.57 50.0802ZM113.514 49.3242H116.586C116.598 48.6522 116.31 47.6082 115.134 47.6082C114.054 47.6082 113.598 48.5922 113.514 49.3242ZM120.736 45.9162L121.768 45.5922V46.9842H123.28V47.7882H121.768V50.9082C121.768 51.6282 121.972 52.0362 122.56 52.0362C122.848 52.0362 123.016 52.0122 123.172 51.9642L123.22 52.7682C123.016 52.8402 122.692 52.9122 122.284 52.9122C121.792 52.9122 121.396 52.7442 121.144 52.4682C120.856 52.1442 120.736 51.6282 120.736 50.9442V47.7882H119.836V46.9842H120.736V45.9162ZM126.295 52.9242H126.283C124.723 52.9242 123.499 51.7722 123.499 49.9362C123.499 47.9922 124.783 46.8522 126.379 46.8522C128.047 46.8522 129.175 48.0642 129.175 49.8282C129.175 51.9882 127.675 52.9242 126.295 52.9242ZM126.319 52.1322H126.331C127.339 52.1322 128.095 51.1842 128.095 49.8642C128.095 48.8802 127.603 47.6442 126.355 47.6442C125.119 47.6442 124.579 48.7962 124.579 49.9002C124.579 51.1722 125.299 52.1322 126.319 52.1322ZM136.3 50.2482H133.432L132.592 52.7922H131.512L134.26 44.7042H135.52L138.28 52.7922H137.164L136.3 50.2482ZM133.648 49.4322H136.084L135.28 47.1042C135.112 46.5762 134.992 46.0962 134.872 45.6282H134.836C134.728 46.0962 134.596 46.6002 134.44 47.0922L133.648 49.4322ZM140.011 52.7922H138.955V46.9842H140.011V52.7922ZM139.471 46.0002H139.459C139.075 46.0002 138.823 45.7002 138.823 45.3522C138.823 44.9802 139.087 44.6922 139.483 44.6922C139.867 44.6922 140.131 44.9802 140.131 45.3522C140.131 45.7002 139.879 46.0002 139.471 46.0002ZM145.248 44.2722H146.304V51.2922C146.304 51.8082 146.316 52.3962 146.352 52.7922H145.404L145.356 51.7842H145.332C145.008 52.4322 144.312 52.9242 143.364 52.9242C141.96 52.9242 140.868 51.7362 140.868 49.9722C140.856 48.0282 142.068 46.8522 143.472 46.8522C144.372 46.8522 144.972 47.2722 145.224 47.7282H145.248V44.2722ZM145.248 50.3562V49.3482C145.248 49.2042 145.236 49.0362 145.2 48.8922C145.044 48.2322 144.468 47.6802 143.676 47.6802C142.584 47.6802 141.936 48.6402 141.936 49.9122C141.936 51.1002 142.524 52.0722 143.652 52.0722C144.36 52.0722 145.008 51.5922 145.2 50.8002C145.236 50.6682 145.248 50.5242 145.248 50.3562ZM149.272 52.3842L149.548 51.5202C150.016 51.8082 150.688 52.0362 151.408 52.0362C152.476 52.0362 153.1 51.4842 153.1 50.6682C153.1 49.9122 152.668 49.4682 151.576 49.0602C150.256 48.6042 149.44 47.9082 149.44 46.7802C149.44 45.5202 150.484 44.5842 152.056 44.5842C152.872 44.5842 153.484 44.7762 153.832 44.9682L153.544 45.8322C153.292 45.6762 152.752 45.4482 152.02 45.4482C150.916 45.4482 150.496 46.1082 150.496 46.6602C150.496 47.4042 150.988 47.7762 152.104 48.2082C153.472 48.7482 154.156 49.3962 154.156 50.5842C154.156 51.8202 153.244 52.9122 151.336 52.9122C150.556 52.9122 149.704 52.6722 149.272 52.3842ZM159.942 46.9842V51.1962C159.942 51.8082 159.954 52.3362 159.99 52.7922H159.054L158.994 51.8442H158.97C158.706 52.3122 158.082 52.9242 157.05 52.9242C156.138 52.9242 155.046 52.4082 155.046 50.3802V46.9842H156.102V50.1882C156.102 51.2922 156.45 52.0482 157.398 52.0482C158.106 52.0482 158.598 51.5562 158.79 51.0762C158.85 50.9322 158.886 50.7402 158.886 50.5362V46.9842H159.942ZM160.816 52.5042L161.068 51.7122C161.392 51.9042 161.944 52.1202 162.472 52.1202C163.228 52.1202 163.588 51.7482 163.588 51.2562C163.588 50.7522 163.288 50.4882 162.52 50.2002C161.464 49.8162 160.972 49.2402 160.972 48.5562C160.972 47.6202 161.74 46.8522 162.976 46.8522C163.564 46.8522 164.08 47.0082 164.392 47.2122L164.14 47.9682C163.912 47.8362 163.492 47.6322 162.952 47.6322C162.328 47.6322 161.992 47.9922 161.992 48.4242C161.992 48.9042 162.328 49.1202 163.084 49.4202C164.08 49.7922 164.608 50.2962 164.608 51.1602C164.608 52.1922 163.804 52.9122 162.448 52.9122C161.812 52.9122 161.224 52.7442 160.816 52.5042ZM165.729 45.9162L166.761 45.5922V46.9842H168.273V47.7882H166.761V50.9082C166.761 51.6282 166.965 52.0362 167.553 52.0362C167.841 52.0362 168.009 52.0122 168.165 51.9642L168.213 52.7682C168.009 52.8402 167.685 52.9122 167.277 52.9122C166.785 52.9122 166.389 52.7442 166.137 52.4682C165.849 52.1442 165.729 51.6282 165.729 50.9442V47.7882H164.829V46.9842H165.729V45.9162ZM173.074 49.2282V51.4002C173.074 51.9042 173.098 52.3962 173.158 52.7922H172.21L172.114 52.0602H172.078C171.766 52.5162 171.13 52.9242 170.302 52.9242C169.126 52.9242 168.526 52.0962 168.526 51.2562C168.526 49.8522 169.774 49.0842 172.018 49.0962V48.9762C172.018 48.4962 171.886 47.6202 170.698 47.6322C170.146 47.6322 169.582 47.7882 169.174 48.0642L168.934 47.3562C169.414 47.0562 170.122 46.8522 170.854 46.8522C172.642 46.8522 173.074 48.0642 173.074 49.2282ZM172.042 50.8362V49.8282C170.89 49.8042 169.582 50.0082 169.582 51.1362C169.582 51.8322 170.038 52.1442 170.566 52.1442C171.334 52.1442 171.826 51.6642 171.994 51.1722C172.03 51.0642 172.042 50.9442 172.042 50.8362ZM175.347 52.7922H174.291V46.9842H175.347V52.7922ZM174.807 46.0002H174.795C174.411 46.0002 174.159 45.7002 174.159 45.3522C174.159 44.9802 174.423 44.6922 174.819 44.6922C175.203 44.6922 175.467 44.9802 175.467 45.3522C175.467 45.7002 175.215 46.0002 174.807 46.0002ZM176.624 52.7922V48.5562C176.624 47.9442 176.612 47.4642 176.576 46.9842H177.512L177.572 47.9322H177.596C177.884 47.3922 178.556 46.8522 179.516 46.8522C180.32 46.8522 181.568 47.3322 181.568 49.3242V52.7922H180.512V49.4442C180.512 48.5082 180.164 47.7162 179.168 47.7162C178.484 47.7162 177.944 48.2082 177.752 48.7962C177.704 48.9282 177.68 49.1202 177.68 49.2882V52.7922H176.624ZM186.892 49.2282V51.4002C186.892 51.9042 186.916 52.3962 186.976 52.7922H186.028L185.932 52.0602H185.896C185.584 52.5162 184.948 52.9242 184.12 52.9242C182.944 52.9242 182.344 52.0962 182.344 51.2562C182.344 49.8522 183.592 49.0842 185.836 49.0962V48.9762C185.836 48.4962 185.704 47.6202 184.516 47.6322C183.964 47.6322 183.4 47.7882 182.992 48.0642L182.752 47.3562C183.232 47.0562 183.94 46.8522 184.672 46.8522C186.46 46.8522 186.892 48.0642 186.892 49.2282ZM185.86 50.8362V49.8282C184.708 49.8042 183.4 50.0082 183.4 51.1362C183.4 51.8322 183.856 52.1442 184.384 52.1442C185.152 52.1442 185.644 51.6642 185.812 51.1722C185.848 51.0642 185.86 50.9442 185.86 50.8362ZM188.109 51.2922V44.2722H189.165V47.9082H189.189C189.561 47.2602 190.233 46.8522 191.169 46.8522C192.609 46.8522 193.617 48.0522 193.617 49.8042C193.617 51.8922 192.297 52.9242 191.001 52.9242C190.161 52.9242 189.501 52.6002 189.057 51.8322H189.033L188.973 52.7922H188.061C188.097 52.3962 188.109 51.8082 188.109 51.2922ZM189.165 49.4202V50.4642C189.165 50.5962 189.177 50.7282 189.201 50.8482C189.405 51.5802 190.029 52.0842 190.785 52.0842C191.901 52.0842 192.549 51.1842 192.549 49.8522C192.549 48.6762 191.949 47.6802 190.821 47.6802C190.101 47.6802 189.429 48.1842 189.225 48.9762C189.189 49.1082 189.165 49.2522 189.165 49.4202ZM195.517 52.7922H194.461V46.9842H195.517V52.7922ZM194.977 46.0002H194.965C194.581 46.0002 194.329 45.7002 194.329 45.3522C194.329 44.9802 194.593 44.6922 194.989 44.6922C195.373 44.6922 195.637 44.9802 195.637 45.3522C195.637 45.7002 195.385 46.0002 194.977 46.0002ZM196.793 52.7922V44.2722H197.849V52.7922H196.793ZM200.205 52.7922H199.149V46.9842H200.205V52.7922ZM199.665 46.0002H199.653C199.269 46.0002 199.017 45.7002 199.017 45.3522C199.017 44.9802 199.281 44.6922 199.677 44.6922C200.061 44.6922 200.325 44.9802 200.325 45.3522C200.325 45.7002 200.073 46.0002 199.665 46.0002ZM201.722 45.9162L202.754 45.5922V46.9842H204.266V47.7882H202.754V50.9082C202.754 51.6282 202.958 52.0362 203.546 52.0362C203.834 52.0362 204.002 52.0122 204.158 51.9642L204.206 52.7682C204.002 52.8402 203.678 52.9122 203.27 52.9122C202.778 52.9122 202.382 52.7442 202.13 52.4682C201.842 52.1442 201.722 51.6282 201.722 50.9442V47.7882H200.822V46.9842H201.722V45.9162ZM204.312 46.9842H205.464L206.724 50.4162C206.868 50.8002 207.012 51.2562 207.108 51.6042H207.132C207.24 51.2562 207.36 50.8122 207.504 50.3922L208.656 46.9842H209.772L208.188 51.1242C207.432 53.1162 206.916 54.1242 206.196 54.7602C205.668 55.2042 205.164 55.3842 204.9 55.4322L204.636 54.5562C204.9 54.4722 205.248 54.3042 205.56 54.0402C205.848 53.8122 206.196 53.4042 206.448 52.8642C206.496 52.7562 206.532 52.6722 206.532 52.6122C206.532 52.5522 206.508 52.4682 206.448 52.3362L204.312 46.9842Z" fill="#607D8B"/>
<defs>
<clipPath id="clip0_3396_4086">
<rect width="20.1359" height="7.79221" fill="white" transform="translate(85.8375)"/>
</clipPath>
</defs>
</svg>
